<mxfile host="app.diagrams.net" modified="2022-08-15T13:38:31.007Z" agent="5.0 (Windows NT 10.0; Win64; x64) AppleWebKit/537.36 (KHTML, like Gecko) Chrome/104.0.0.0 Safari/537.36" etag="Ik6TKqP4AYiYaqYjbVDZ" version="17.3.0" type="github">
  <diagram id="JQQySEixVqgQuPRewYlr" name="Page-1">
    <mxGraphModel dx="2062" dy="1114" grid="1" gridSize="10" guides="1" tooltips="1" connect="1" arrows="1" fold="1" page="1" pageScale="1" pageWidth="2339" pageHeight="3300" math="0" shadow="0">
      <root>
        <mxCell id="0" />
        <mxCell id="1" parent="0" />
        <mxCell id="yVjGx74_lBPrKLa_Afo--8" style="edgeStyle=orthogonalEdgeStyle;rounded=0;orthogonalLoop=1;jettySize=auto;html=1;exitX=1;exitY=0.5;exitDx=0;exitDy=0;fontSize=24;" edge="1" parent="1" source="yVjGx74_lBPrKLa_Afo--1" target="yVjGx74_lBPrKLa_Afo--3">
          <mxGeometry relative="1" as="geometry" />
        </mxCell>
        <mxCell id="yVjGx74_lBPrKLa_Afo--1" value="&lt;p&gt;&lt;font style=&quot;font-size: 24px&quot;&gt;s_invalid&lt;/font&gt;&lt;/p&gt;" style="ellipse;whiteSpace=wrap;html=1;aspect=fixed;" vertex="1" parent="1">
          <mxGeometry x="290" y="380" width="139" height="139" as="geometry" />
        </mxCell>
        <mxCell id="yVjGx74_lBPrKLa_Afo--9" style="edgeStyle=orthogonalEdgeStyle;rounded=0;orthogonalLoop=1;jettySize=auto;html=1;exitX=1;exitY=0.5;exitDx=0;exitDy=0;fontSize=24;" edge="1" parent="1" source="yVjGx74_lBPrKLa_Afo--3" target="yVjGx74_lBPrKLa_Afo--4">
          <mxGeometry relative="1" as="geometry" />
        </mxCell>
        <mxCell id="yVjGx74_lBPrKLa_Afo--3" value="&lt;p&gt;&lt;font style=&quot;font-size: 24px&quot;&gt;s_refill_req&lt;/font&gt;&lt;/p&gt;" style="ellipse;whiteSpace=wrap;html=1;aspect=fixed;" vertex="1" parent="1">
          <mxGeometry x="600" y="380" width="139" height="139" as="geometry" />
        </mxCell>
        <mxCell id="yVjGx74_lBPrKLa_Afo--10" style="edgeStyle=orthogonalEdgeStyle;rounded=0;orthogonalLoop=1;jettySize=auto;html=1;exitX=1;exitY=0.5;exitDx=0;exitDy=0;entryX=0;entryY=0.5;entryDx=0;entryDy=0;fontSize=24;" edge="1" parent="1" source="yVjGx74_lBPrKLa_Afo--4" target="yVjGx74_lBPrKLa_Afo--5">
          <mxGeometry relative="1" as="geometry" />
        </mxCell>
        <mxCell id="yVjGx74_lBPrKLa_Afo--4" value="&lt;p&gt;&lt;font style=&quot;font-size: 24px&quot;&gt;s_refill_resp&lt;/font&gt;&lt;/p&gt;" style="ellipse;whiteSpace=wrap;html=1;aspect=fixed;" vertex="1" parent="1">
          <mxGeometry x="910" y="380" width="139" height="139" as="geometry" />
        </mxCell>
        <mxCell id="yVjGx74_lBPrKLa_Afo--5" value="&lt;p&gt;&lt;font style=&quot;font-size: 24px&quot;&gt;s_send_resp&lt;/font&gt;&lt;/p&gt;" style="ellipse;whiteSpace=wrap;html=1;aspect=fixed;" vertex="1" parent="1">
          <mxGeometry x="1200" y="380" width="139" height="139" as="geometry" />
        </mxCell>
        <mxCell id="yVjGx74_lBPrKLa_Afo--21" style="edgeStyle=orthogonalEdgeStyle;curved=1;rounded=0;orthogonalLoop=1;jettySize=auto;html=1;exitX=1;exitY=0.5;exitDx=0;exitDy=0;fontSize=24;" edge="1" parent="1" source="yVjGx74_lBPrKLa_Afo--11" target="yVjGx74_lBPrKLa_Afo--12">
          <mxGeometry relative="1" as="geometry" />
        </mxCell>
        <mxCell id="yVjGx74_lBPrKLa_Afo--11" value="&lt;p&gt;&lt;font style=&quot;font-size: 24px&quot;&gt;s_invalid&lt;/font&gt;&lt;/p&gt;" style="ellipse;whiteSpace=wrap;html=1;aspect=fixed;" vertex="1" parent="1">
          <mxGeometry x="230" y="1039" width="139" height="139" as="geometry" />
        </mxCell>
        <mxCell id="yVjGx74_lBPrKLa_Afo--22" style="edgeStyle=orthogonalEdgeStyle;curved=1;rounded=0;orthogonalLoop=1;jettySize=auto;html=1;exitX=1;exitY=0.5;exitDx=0;exitDy=0;entryX=0;entryY=0.5;entryDx=0;entryDy=0;fontSize=24;" edge="1" parent="1" source="yVjGx74_lBPrKLa_Afo--12" target="yVjGx74_lBPrKLa_Afo--13">
          <mxGeometry relative="1" as="geometry" />
        </mxCell>
        <mxCell id="yVjGx74_lBPrKLa_Afo--12" value="&lt;p&gt;&lt;font style=&quot;font-size: 24px&quot;&gt;s_tlb&lt;/font&gt;&lt;/p&gt;" style="ellipse;whiteSpace=wrap;html=1;aspect=fixed;" vertex="1" parent="1">
          <mxGeometry x="450" y="1039" width="139" height="139" as="geometry" />
        </mxCell>
        <mxCell id="yVjGx74_lBPrKLa_Afo--23" style="edgeStyle=orthogonalEdgeStyle;curved=1;rounded=0;orthogonalLoop=1;jettySize=auto;html=1;exitX=1;exitY=0.5;exitDx=0;exitDy=0;entryX=0;entryY=0.5;entryDx=0;entryDy=0;fontSize=24;" edge="1" parent="1" source="yVjGx74_lBPrKLa_Afo--13" target="yVjGx74_lBPrKLa_Afo--14">
          <mxGeometry relative="1" as="geometry" />
        </mxCell>
        <mxCell id="yVjGx74_lBPrKLa_Afo--13" value="&lt;p&gt;&lt;font style=&quot;font-size: 24px&quot;&gt;s_pm&lt;/font&gt;&lt;/p&gt;" style="ellipse;whiteSpace=wrap;html=1;aspect=fixed;" vertex="1" parent="1">
          <mxGeometry x="670" y="1039" width="139" height="139" as="geometry" />
        </mxCell>
        <mxCell id="yVjGx74_lBPrKLa_Afo--24" style="edgeStyle=orthogonalEdgeStyle;curved=1;rounded=0;orthogonalLoop=1;jettySize=auto;html=1;exitX=1;exitY=0.5;exitDx=0;exitDy=0;entryX=0;entryY=0.5;entryDx=0;entryDy=0;fontSize=24;" edge="1" parent="1" source="yVjGx74_lBPrKLa_Afo--14" target="yVjGx74_lBPrKLa_Afo--15">
          <mxGeometry relative="1" as="geometry" />
        </mxCell>
        <mxCell id="yVjGx74_lBPrKLa_Afo--14" value="&lt;p&gt;&lt;font style=&quot;font-size: 14px&quot;&gt;s_flush_sbuffer_req&lt;/font&gt;&lt;/p&gt;" style="ellipse;whiteSpace=wrap;html=1;aspect=fixed;" vertex="1" parent="1">
          <mxGeometry x="890" y="1039" width="139" height="139" as="geometry" />
        </mxCell>
        <mxCell id="yVjGx74_lBPrKLa_Afo--25" style="edgeStyle=orthogonalEdgeStyle;curved=1;rounded=0;orthogonalLoop=1;jettySize=auto;html=1;exitX=1;exitY=0.5;exitDx=0;exitDy=0;entryX=0;entryY=0.5;entryDx=0;entryDy=0;fontSize=24;" edge="1" parent="1" source="yVjGx74_lBPrKLa_Afo--15" target="yVjGx74_lBPrKLa_Afo--16">
          <mxGeometry relative="1" as="geometry" />
        </mxCell>
        <mxCell id="yVjGx74_lBPrKLa_Afo--15" value="&lt;p&gt;&lt;font style=&quot;font-size: 14px&quot;&gt;s_flush_sbuffer_resp&lt;/font&gt;&lt;/p&gt;" style="ellipse;whiteSpace=wrap;html=1;aspect=fixed;" vertex="1" parent="1">
          <mxGeometry x="1110" y="1039" width="139" height="139" as="geometry" />
        </mxCell>
        <mxCell id="yVjGx74_lBPrKLa_Afo--26" style="edgeStyle=orthogonalEdgeStyle;curved=1;rounded=0;orthogonalLoop=1;jettySize=auto;html=1;exitX=1;exitY=0.5;exitDx=0;exitDy=0;entryX=0;entryY=0.5;entryDx=0;entryDy=0;fontSize=24;" edge="1" parent="1" source="yVjGx74_lBPrKLa_Afo--16" target="yVjGx74_lBPrKLa_Afo--17">
          <mxGeometry relative="1" as="geometry" />
        </mxCell>
        <mxCell id="yVjGx74_lBPrKLa_Afo--16" value="&lt;p&gt;&lt;font style=&quot;font-size: 16px&quot;&gt;s_cache_req&lt;/font&gt;&lt;/p&gt;" style="ellipse;whiteSpace=wrap;html=1;aspect=fixed;" vertex="1" parent="1">
          <mxGeometry x="1330" y="1039" width="139" height="139" as="geometry" />
        </mxCell>
        <mxCell id="yVjGx74_lBPrKLa_Afo--27" style="edgeStyle=orthogonalEdgeStyle;curved=1;rounded=0;orthogonalLoop=1;jettySize=auto;html=1;exitX=1;exitY=0.5;exitDx=0;exitDy=0;fontSize=24;" edge="1" parent="1" source="yVjGx74_lBPrKLa_Afo--17" target="yVjGx74_lBPrKLa_Afo--18">
          <mxGeometry relative="1" as="geometry" />
        </mxCell>
        <mxCell id="yVjGx74_lBPrKLa_Afo--17" value="&lt;p&gt;&lt;font style=&quot;font-size: 16px&quot;&gt;s_cache_resp&lt;/font&gt;&lt;/p&gt;" style="ellipse;whiteSpace=wrap;html=1;aspect=fixed;" vertex="1" parent="1">
          <mxGeometry x="1550" y="1039" width="139" height="139" as="geometry" />
        </mxCell>
        <mxCell id="yVjGx74_lBPrKLa_Afo--18" value="&lt;p&gt;&lt;font style=&quot;font-size: 24px&quot;&gt;s_finish&lt;/font&gt;&lt;/p&gt;" style="ellipse;whiteSpace=wrap;html=1;aspect=fixed;" vertex="1" parent="1">
          <mxGeometry x="1770" y="1039" width="139" height="139" as="geometry" />
        </mxCell>
        <mxCell id="yVjGx74_lBPrKLa_Afo--20" value="" style="endArrow=classic;html=1;rounded=0;fontSize=24;edgeStyle=orthogonalEdgeStyle;curved=1;exitX=0.5;exitY=1;exitDx=0;exitDy=0;entryX=0.5;entryY=1;entryDx=0;entryDy=0;" edge="1" parent="1" source="yVjGx74_lBPrKLa_Afo--5" target="yVjGx74_lBPrKLa_Afo--1">
          <mxGeometry width="50" height="50" relative="1" as="geometry">
            <mxPoint x="880" y="750" as="sourcePoint" />
            <mxPoint x="930" y="700" as="targetPoint" />
            <Array as="points">
              <mxPoint x="1270" y="620" />
              <mxPoint x="360" y="620" />
            </Array>
          </mxGeometry>
        </mxCell>
        <mxCell id="yVjGx74_lBPrKLa_Afo--29" value="" style="endArrow=classic;html=1;rounded=0;fontSize=24;curved=1;edgeStyle=orthogonalEdgeStyle;exitX=0.5;exitY=1;exitDx=0;exitDy=0;" edge="1" parent="1" source="yVjGx74_lBPrKLa_Afo--18" target="yVjGx74_lBPrKLa_Afo--11">
          <mxGeometry width="50" height="50" relative="1" as="geometry">
            <mxPoint x="1070" y="1480" as="sourcePoint" />
            <mxPoint x="1120" y="1430" as="targetPoint" />
            <Array as="points">
              <mxPoint x="1840" y="1370" />
              <mxPoint x="300" y="1370" />
            </Array>
          </mxGeometry>
        </mxCell>
        <mxCell id="yVjGx74_lBPrKLa_Afo--30" value="" style="endArrow=classic;html=1;rounded=0;fontSize=24;curved=1;edgeStyle=orthogonalEdgeStyle;entryX=0.5;entryY=0;entryDx=0;entryDy=0;exitX=0.5;exitY=0;exitDx=0;exitDy=0;" edge="1" parent="1" source="yVjGx74_lBPrKLa_Afo--12" target="yVjGx74_lBPrKLa_Afo--18">
          <mxGeometry width="50" height="50" relative="1" as="geometry">
            <mxPoint x="1110" y="830" as="sourcePoint" />
            <mxPoint x="1160" y="780" as="targetPoint" />
            <Array as="points">
              <mxPoint x="520" y="800" />
              <mxPoint x="1840" y="800" />
            </Array>
          </mxGeometry>
        </mxCell>
        <mxCell id="yVjGx74_lBPrKLa_Afo--31" value="" style="endArrow=classic;html=1;rounded=0;fontSize=24;curved=1;edgeStyle=orthogonalEdgeStyle;exitX=0.5;exitY=0;exitDx=0;exitDy=0;" edge="1" parent="1" source="yVjGx74_lBPrKLa_Afo--13">
          <mxGeometry width="50" height="50" relative="1" as="geometry">
            <mxPoint x="820" y="800" as="sourcePoint" />
            <mxPoint x="1840" y="1040" as="targetPoint" />
            <Array as="points">
              <mxPoint x="740" y="860" />
              <mxPoint x="1840" y="860" />
            </Array>
          </mxGeometry>
        </mxCell>
      </root>
    </mxGraphModel>
  </diagram>
</mxfile>
